<svg width="191" height="46" viewBox="0 0 191 46" fill="none" xmlns="http://www.w3.org/2000/svg">
<path d="M68.4516 18.5197C67.635 17.0332 65.7975 16.0928 63.8725 16.0928C59.6726 16.0624 56.3768 18.7624 56.3768 23.9197C56.3768 29.168 59.5268 31.8984 63.785 31.868C65.3892 31.8377 67.635 30.9883 68.4516 29.2287L68.6266 31.413H71.9808V16.4568H68.5683L68.4516 18.5197ZM64.1934 19.3995C69.7933 19.3995 69.7933 28.4703 64.1934 28.4703C61.8309 28.4703 59.9351 26.7714 59.9351 23.9197C59.9351 21.068 61.8309 19.3995 64.1934 19.3995Z" fill="#1D1D1D"/>
<path d="M75.8261 12.6343V16.4871H73.1428V19.6725H75.8261V26.1343C75.8261 29.8658 77.8678 31.7164 80.9886 31.595C82.0677 31.5647 82.9135 31.3826 83.9343 30.9579L82.9427 27.8029C82.4177 28.0759 81.776 28.2579 81.2219 28.2579C80.1136 28.2579 79.3552 27.5602 79.3552 26.1343V19.6725H83.351V16.4871H79.3844V12.24L75.8261 12.6343Z" fill="#1D1D1D"/>
<path d="M99.142 31.413V23.404C99.142 21.4321 100.338 19.7029 102.263 19.7029C104.188 19.7029 104.975 21.3714 104.975 23.3433V31.413H108.534V23.3433C108.534 18.8534 106.521 16.2445 102.438 16.2445C100.571 16.2445 98.9087 16.8512 97.6254 18.9748C96.8087 16.9119 95.0879 16.1838 93.3671 16.1838C91.9963 16.1838 90.3338 16.7298 89.5755 18.2467L89.313 16.4265H86.0172V31.413H89.5755V23.404C89.5755 21.4321 90.713 19.6422 92.6379 19.6422C94.5921 19.6422 95.5837 21.4321 95.5837 23.404V31.413H99.142Z" fill="#1D1D1D"/>
<path d="M123.452 18.5197C122.635 17.0332 120.797 16.0928 118.872 16.0928C114.673 16.0624 111.377 18.7624 111.377 23.9197C111.377 29.168 114.527 31.8984 118.785 31.868C120.389 31.8377 122.635 30.9883 123.452 29.2287L123.627 31.413H126.981V16.4568H123.568L123.452 18.5197ZM119.193 19.3995C124.793 19.3995 124.793 28.4703 119.193 28.4703C116.831 28.4703 114.935 26.7714 114.935 23.9197C114.935 21.068 116.831 19.3995 119.193 19.3995Z" fill="#1D1D1D"/>
<path d="M139.853 16.8209C138.861 16.1231 137.694 15.9714 136.557 15.9714C132.532 15.9714 129.265 18.8838 129.265 23.5557C129.265 28.2276 132.065 31.0793 136.557 31.0793C138.336 31.0793 140.203 32.0197 140.203 34.0826C140.203 36.1456 138.598 37.2984 136.557 37.2984C134.515 37.2984 132.794 36.0242 132.794 34.0826H129.265C129.265 38.1175 132.386 40.7568 136.557 40.7568C140.728 40.7568 143.761 38.2085 143.761 34.0826C143.761 32.1714 143.178 30.3815 140.786 29.1377C143.148 28.0152 143.819 25.4062 143.819 23.5557C143.819 21.9175 143.411 20.431 142.303 19.1265L143.907 17.0029L141.282 14.94L139.853 16.8209ZM136.557 19.3388C138.598 19.3388 140.29 20.977 140.29 23.5557C140.29 26.1343 138.598 27.7119 136.557 27.7119C134.486 27.7119 132.794 26.1647 132.794 23.5557C132.794 20.9467 134.486 19.3388 136.557 19.3388Z" fill="#1D1D1D"/>
<path d="M146.175 16.4568V24.3141C146.175 28.9557 148.683 31.6557 152.124 31.6557C154.137 31.6557 155.508 30.9276 156.995 29.4107L157.229 31.4433H160.408V16.4568H156.879V24.1018C156.879 26.377 155.391 28.2883 153.204 28.2883C150.929 28.2883 149.733 26.5591 149.733 24.2838V16.4568H146.175Z" fill="#1D1D1D"/>
<path d="M163.547 16.4568V31.413H167.105V23.5253C167.105 20.7647 168.826 19.7332 170.693 19.7332C171.859 19.7332 172.53 20.0669 173.259 20.704L174.863 17.4883C174.076 16.6692 172.647 16.0624 171.159 16.0624C169.701 16.0624 168.214 16.3355 167.105 18.186L166.843 16.4568H163.547Z" fill="#1D1D1D"/>
<path d="M176.566 16.4568V24.3141C176.566 28.9557 179.074 31.6557 182.515 31.6557C184.528 31.6557 185.899 30.9276 187.386 29.4107L187.62 31.4433H190.799V16.4568H187.27V24.1018C187.27 26.377 185.782 28.2883 183.595 28.2883C181.32 28.2883 180.124 26.5591 180.124 24.2838V16.4568H176.566Z" fill="#1D1D1D"/>
<circle cx="22.875" cy="23.125" r="22.875" fill="#D9F94B"/>
<path d="M33.2197 32.0614C35.1388 29.8144 34.873 26.4371 32.626 24.518C30.379 22.5988 27.0017 22.8646 25.0825 25.1116C23.1634 27.3586 23.4292 30.736 25.6762 32.6551C27.9232 34.5742 31.3006 34.3084 33.2197 32.0614Z" fill="#1D1D1D"/>
<path d="M29.9598 7.43814C30.6569 8.03311 31.1896 8.79717 31.5066 9.65708C31.8236 10.517 31.9145 11.4439 31.7704 12.349C31.6264 13.2542 31.2522 14.1071 30.6839 14.8261C30.1155 15.5451 29.372 16.106 28.5246 16.4551L28.3749 16.5144L25.7168 17.5863C23.9138 18.3099 21.7392 18.6611 19.9637 20.7399C18.4165 22.5515 18.1739 25.3011 17.7381 27.1301L17.1006 29.7407L17.0727 29.8636C16.861 30.756 16.4235 31.579 15.8023 32.2537C15.1811 32.9285 14.3969 33.4323 13.525 33.7169C12.6531 34.0015 11.7228 34.0573 10.8231 33.879C9.92343 33.7006 9.08468 33.2941 8.38726 32.6985C7.68984 32.1028 7.15716 31.338 6.84029 30.4773C6.52342 29.6166 6.43299 28.689 6.57768 27.7833C6.72237 26.8776 7.09733 26.0243 7.66658 25.3052C8.23584 24.586 8.98031 24.0252 9.8286 23.6765L9.84128 23.6617L9.91446 23.6361L10.2667 23.5115L12.8685 22.6043C14.5341 22.0201 16.6207 21.3295 18.3183 19.3419C18.956 18.5952 20.038 15.0217 20.4218 13.5371L21.2705 10.2669C21.4827 9.37553 21.9203 8.55361 22.5412 7.87987C23.1622 7.20613 23.9458 6.70314 24.8169 6.41911C25.6881 6.13507 26.6175 6.0795 27.5163 6.25772C28.4151 6.43595 29.253 6.84199 29.9498 7.43695L29.9598 7.43814Z" fill="#1D1D1D"/>
</svg>
